<svg width="28" height="42" viewBox="0 0 28 42" fill="none" xmlns="http://www.w3.org/2000/svg">
<path fill-rule="evenodd" clip-rule="evenodd" d="M0.298828 36.461V5.92353C0.298828 -0.788962 27.4488 -0.788962 27.4488 5.92353V36.461C27.4488 39.7985 20.6238 41.561 13.8738 41.561C7.12383 41.561 0.298828 39.7985 0.298828 36.461ZM25.3113 5.92353C25.3113 5.02353 21.4113 2.96104 13.8738 2.96104C6.33633 2.96104 2.43633 4.98604 2.43633 5.88604C2.43633 6.78604 6.33633 8.8485 13.8738 8.8485C21.4113 8.8485 25.3113 6.82353 25.3113 5.92353ZM2.43633 36.4235C2.43633 37.3235 6.33633 39.386 13.8738 39.386C21.4113 39.386 25.3113 37.3235 25.3113 36.461V28.7985C22.7613 30.261 18.2988 31.011 13.8738 31.011C9.44883 31.011 4.98633 30.261 2.43633 28.7985V36.4235ZM2.43633 25.911C2.43633 26.811 6.33633 28.8735 13.8738 28.8735C21.4113 28.8735 25.3113 26.811 25.3113 25.9485V19.286C22.7613 20.7485 18.2988 21.4985 13.8738 21.4985C9.44883 21.4985 4.98633 20.7485 2.43633 19.286V25.911ZM2.43633 16.3985C2.43633 17.2985 6.33633 19.361 13.8738 19.361C21.4113 19.361 25.3113 17.2985 25.3113 16.436V8.7735C22.7613 10.236 18.2988 10.986 13.8738 10.986C9.44883 10.986 4.98633 10.236 2.43633 8.7735V16.3985ZM22.348 14.5739C22.348 15.3609 21.7101 15.9989 20.923 15.9989C20.136 15.9989 19.498 15.3609 19.498 14.5739C19.498 13.7869 20.136 13.1489 20.923 13.1489C21.7101 13.1489 22.348 13.7869 22.348 14.5739ZM20.923 25.5106C21.7101 25.5106 22.348 24.8727 22.348 24.0856C22.348 23.2986 21.7101 22.6606 20.923 22.6606C20.136 22.6606 19.498 23.2986 19.498 24.0856C19.498 24.8727 20.136 25.5106 20.923 25.5106ZM22.348 35.5985C22.348 36.3855 21.7101 37.0235 20.923 37.0235C20.136 37.0235 19.498 36.3855 19.498 35.5985C19.498 34.8115 20.136 34.1735 20.923 34.1735C21.7101 34.1735 22.348 34.8115 22.348 35.5985Z" fill="#4E66FF"/>
</svg>
