<svg width="120" height="120" viewBox="0 0 120 120" fill="none" xmlns="http://www.w3.org/2000/svg">
<path d="M13.7454 80.9305C18.5836 78.4263 23.6587 76.4367 28.8353 74.8588C40.7786 71.2226 52.9926 69.6446 65.4434 69.9533C72.9883 70.1249 80.4656 71.0854 87.7737 72.9378C86.6572 72.8348 85.5407 72.6976 84.4241 72.5947C80.6686 72.2517 76.9131 72.2174 73.1575 72.3889C66.8644 72.7319 60.639 73.7267 54.5489 75.4076C49.6769 76.7455 44.9401 78.4949 40.4402 80.8276C40.2711 80.8962 40.1357 80.9648 39.9666 80.9648C36.5155 80.9648 33.0645 80.9648 29.6134 80.9648C29.5458 80.9648 29.4781 80.9648 29.3766 80.9305C29.5458 80.7247 29.7149 80.6904 29.8841 80.5875C34.9253 77.8775 40.3049 75.9222 45.8198 74.4814C51.5716 73.0064 57.391 72.0459 63.3119 71.5656C65.0712 71.4284 66.8306 71.3255 68.5561 71.2569C68.7253 71.2569 68.8945 71.2226 69.0636 71.1883C67.2366 70.9825 65.4096 70.9138 63.5487 70.9825C51.5377 71.3598 39.9666 73.8297 28.8691 78.4949C27.3466 79.1467 25.8579 79.9014 24.403 80.7247C24.2339 80.8276 24.0309 80.8962 23.8279 80.8962C20.5122 80.8962 17.2303 80.8962 13.9146 80.8962C13.8807 80.9305 13.8131 80.9305 13.7454 80.9305Z" fill="#393737"/>
<path d="M31.3376 58.2903C31.3376 55.3745 31.3376 52.4587 31.3376 49.5429C31.3376 49.2685 31.3715 49.1312 31.676 49.1656C35.2962 49.1656 38.9164 49.1656 42.5366 49.1999C43.5855 49.1999 44.6343 49.3714 45.6493 49.7144C48.3222 50.6406 50.0139 52.5273 50.6229 55.3402C51.0289 57.1926 51.0289 59.0793 50.6229 60.9317C49.7432 64.9452 46.5628 67.4837 42.4013 67.518C38.8487 67.518 35.2962 67.518 31.7436 67.518C31.4053 67.518 31.3376 67.4494 31.3376 67.1063C31.3376 64.1562 31.3376 61.2404 31.3376 58.2903ZM35.6007 58.3246C35.6007 59.834 35.6007 61.309 35.6007 62.8184C35.6007 63.0242 35.6007 63.1614 35.8714 63.1614C38.0367 63.1614 40.2021 63.1957 42.4013 63.1271C44.499 63.0585 46.0553 61.6864 46.4952 59.5938C46.6643 58.7706 46.6643 57.9816 46.5628 57.1583C46.326 55.4088 45.3787 54.2425 43.687 53.7279C43.1795 53.5907 42.672 53.5221 42.1644 53.5221C40.1006 53.5221 38.0706 53.5221 36.0067 53.5221C35.6684 53.5221 35.6007 53.6593 35.6007 53.9681C35.6345 55.4088 35.6007 56.8496 35.6007 58.3246Z" fill="#393737"/>
<path d="M63.0407 67.4836C61.6535 67.4836 60.2663 67.4836 58.8791 67.4836C56.0371 67.4493 53.6687 65.4597 53.2289 62.7154C53.1612 62.3723 53.1612 62.0293 53.1612 61.7206C53.1612 59.4908 53.195 57.2611 53.1612 55.0314C53.0935 51.7382 55.7664 49.2684 58.7438 49.1998C61.6535 49.1655 64.5293 49.1655 67.439 49.1998C70.5518 49.2684 73.1231 51.8755 73.0216 55.0657C72.9539 57.2611 72.9878 59.4565 73.0216 61.652C73.0893 65.0823 70.2473 67.4836 67.3037 67.4836C65.8489 67.4836 64.4617 67.4836 63.0407 67.4836ZM63.0407 53.4534C61.8565 53.4534 60.7061 53.4534 59.5219 53.4534C58.3039 53.4534 57.3228 54.4482 57.3228 55.6831C57.3228 57.4326 57.3228 59.2164 57.3228 60.9659C57.3228 62.1665 58.2701 63.1956 59.4881 63.1956C61.8565 63.1956 64.2248 63.1956 66.5932 63.1956C67.8112 63.1956 68.7586 62.1665 68.7586 60.9316C68.7586 59.1821 68.7586 57.4669 68.7586 55.7175C68.7586 54.3796 67.8112 53.4191 66.4917 53.4191C65.3752 53.4534 64.2248 53.4534 63.0407 53.4534Z" fill="#393737"/>
<path d="M76.6397 39.0116C79.1434 38.9773 81.5117 39.0802 83.8463 39.1145C84.2184 39.1145 84.4214 39.2517 84.4553 39.6291C84.4553 39.6977 84.4891 39.732 84.4891 39.8006C84.6583 40.7268 84.6583 40.7268 85.6056 40.7954C88.177 41.0012 90.7483 41.0355 93.3197 41.0698C93.7934 41.0698 94.3009 41.1041 94.7746 41.0698C95.3836 41.0012 95.5527 40.864 95.6881 40.2465C95.7557 40.0064 95.8911 39.8692 96.0941 39.8692C97.1429 39.7663 98.1918 39.8349 99.2406 40.1436C99.5451 40.2465 99.6805 40.418 99.782 40.7268C101.068 44.1914 102.184 47.7247 103.47 51.1894C103.673 51.7039 103.842 52.2528 104.045 52.7673C104.214 53.1447 104.113 53.3848 103.774 53.6249C103.098 54.0366 103.098 54.0709 103.402 54.7912C104.248 56.6436 105.026 58.5303 106.007 60.3141C107.936 63.916 107.022 70.0563 103.538 73.2466C102.962 73.7611 102.353 74.2757 101.71 74.7216C101.237 75.0647 100.763 74.9961 100.492 74.5844C100.256 74.1728 100.357 73.7611 100.831 73.4524C101.406 73.0751 101.981 72.6977 102.455 72.2175C102.556 72.1146 102.726 72.046 102.455 71.8744C100.391 70.6738 98.7331 68.9929 97.2783 67.1405C95.7557 65.1509 94.4362 63.0241 93.5227 60.6915C93.049 59.4908 92.7784 58.2559 92.9814 56.9867C93.0829 56.3692 93.3197 55.7517 93.6242 55.2029C94.3347 53.8307 94.2332 52.5272 93.5227 51.1894C92.3724 48.9939 90.8499 47.2101 88.7183 45.9066C88.0078 45.4607 87.365 45.4264 86.6206 45.7694C85.6395 46.2153 84.6921 46.7299 83.7786 47.3131C83.1019 47.759 82.4591 47.7247 81.8162 47.3474C81.6132 47.2102 81.3764 47.0729 81.2072 46.9014C79.3464 45.0147 77.0457 44.2257 74.4405 44.2257C73.933 44.2257 73.4255 44.1914 72.9518 44.1914C72.6473 44.1914 72.4104 44.0885 72.2074 43.8827C71.0909 42.6478 70.1097 41.2756 69.3316 39.8006C69.0609 39.286 69.1286 39.2517 69.6699 39.2174C72.0721 39.0116 74.4405 38.9773 76.6397 39.0116ZM71.2939 40.5209C71.7338 41.1041 72.1398 41.6187 72.5119 42.1332C72.8503 42.5792 73.2901 42.785 73.8653 42.7164C74.1698 42.6821 74.5081 42.6821 74.8126 42.6821C77.181 42.6135 79.3464 43.1623 81.1057 44.8775C82.0531 45.8037 82.8312 45.9066 84.0154 45.3235C84.6244 45.0147 85.1658 44.6717 85.7748 44.3286C86.2823 44.0542 86.8236 43.8484 87.4326 43.8141C88.3123 43.8141 89.0228 44.2257 89.6657 44.7403C91.7634 46.3526 93.4889 48.3422 94.6392 50.7434C95.5189 52.5615 95.8573 54.4139 94.9776 56.3692C94.3347 57.8443 94.4362 59.3193 95.0452 60.7944C96.8046 64.9794 99.4775 68.4098 102.827 71.3942C103.03 71.5657 103.132 71.4971 103.233 71.3256C104.248 70.0906 104.891 68.6499 105.263 67.1062C105.635 65.4254 105.838 63.7788 105.195 62.1322C104.147 59.4908 102.929 56.9181 101.643 54.3796C101.169 53.4877 101.169 53.4877 102.015 52.9388C102.218 52.8016 102.32 52.6987 102.252 52.4243C101.169 49.0968 100.086 45.8037 98.97 42.4763C98.6316 41.4128 98.4963 41.3785 97.3798 41.3099C96.9399 41.2756 96.7708 41.4471 96.7369 41.8588C96.7031 42.4076 96.6354 42.9565 96.5678 43.5054C96.5339 43.7798 96.2294 43.9513 95.8572 43.917C95.6204 43.8827 95.5866 43.7798 95.6204 43.574C95.6881 42.8879 95.6543 42.8879 94.9776 42.8193C94.8761 42.8193 94.7407 42.785 94.6392 42.785C91.019 42.5792 87.3988 42.3733 83.7786 42.1675C83.4064 42.1332 83.2034 42.0303 83.2373 41.6187C83.2373 41.5501 83.2373 41.4814 83.2373 41.4128C83.2034 40.8297 83.1357 40.7611 82.5267 40.7268C79.9215 40.6582 77.3163 40.5896 74.7111 40.5209C73.6623 40.4866 72.5458 40.418 71.2939 40.5209Z" fill="#393737"/>
<path d="M13 58.3244C13 55.4086 13 52.5271 13 49.6113C13 49.2682 13.0677 49.1653 13.4398 49.1653C18.6502 49.1653 23.8606 49.1653 29.071 49.1653C29.3755 49.1653 29.5109 49.2339 29.5109 49.577C29.477 50.7433 29.477 51.8753 29.5109 53.0416C29.5109 53.3847 29.4094 53.4533 29.1049 53.4533C25.3493 53.4533 21.5938 53.4533 17.8382 53.4533C17.2969 53.4533 17.2969 53.4533 17.2969 54.0021C17.2969 54.5853 17.3307 55.2028 17.2969 55.7859C17.2969 56.0947 17.3984 56.1976 17.7029 56.1976C20.5449 56.1976 23.3531 56.1976 26.1952 56.1633C26.6012 56.1633 26.6688 56.3005 26.6688 56.6435C26.635 57.7412 26.635 58.8389 26.6688 59.9367C26.6688 60.314 26.6012 60.4169 26.1952 60.4169C23.387 60.3826 20.6126 60.4169 17.8044 60.3826C17.4322 60.3826 17.3307 60.4855 17.3307 60.8629C17.3646 62.9211 17.3307 64.945 17.3646 67.0032C17.3646 67.3805 17.2631 67.4491 16.9247 67.4491C15.7744 67.4148 14.624 67.4148 13.5075 67.4491C13.203 67.4491 13.1015 67.3462 13.1015 67.0375C13 64.156 13 61.2402 13 58.3244Z" fill="#393737"/>
<path d="M72.1402 49.1653C72.2755 49.1653 72.4108 49.1653 72.5462 49.1653C78.0949 49.1653 83.6437 49.1653 89.1586 49.1653C89.4631 49.1653 89.6999 49.2682 89.9367 49.4741C90.9518 50.4689 91.6623 51.6352 92.0006 53.0416C92.1021 53.3847 92.0344 53.4876 91.6623 53.4876C89.4969 53.4876 87.3315 53.4876 85.2 53.4533C84.794 53.4533 84.6925 53.5219 84.6925 53.9678C84.6925 58.3244 84.6925 62.681 84.7263 67.0375C84.7263 67.4149 84.6248 67.5178 84.2527 67.5178C83.1362 67.4835 82.0196 67.4835 80.9031 67.5178C80.5648 67.5178 80.4633 67.4149 80.4633 67.0718C80.4633 62.7496 80.4633 58.4273 80.4633 54.0707C80.4633 53.3847 80.5648 53.4876 79.8881 53.4876C78.2303 53.4876 76.5724 53.4876 74.9145 53.4876C74.61 53.4876 74.4747 53.4533 74.407 53.1102C74.0687 51.6695 73.3244 50.4346 72.2417 49.4398C72.2078 49.3368 72.1402 49.3025 72.1402 49.1653Z" fill="#393737"/>
<path d="M98.7349 75.5105C98.3289 75.5105 97.9906 75.1675 97.9906 74.7558C97.9906 74.3442 98.3289 74.0012 98.7349 74.0012C99.1409 74.0012 99.5131 74.3442 99.4793 74.7901C99.4793 75.2018 99.1748 75.5105 98.7349 75.5105Z" fill="#393737"/>
<path d="M95.9256 73.9668C96.264 73.9668 96.5346 74.2756 96.5008 74.5843C96.5008 74.893 96.1963 75.1675 95.8918 75.1675C95.5534 75.1675 95.2828 74.893 95.3166 74.55C95.3504 74.2413 95.6211 73.9668 95.9256 73.9668Z" fill="#393737"/>
<path d="M92.9834 73.521C93.254 73.5553 93.4232 73.6582 93.4571 73.9327C93.4571 74.2071 93.3217 74.3443 93.051 74.3786C92.7804 74.3786 92.645 74.2414 92.6112 73.9669C92.6112 73.6925 92.7804 73.5896 92.9834 73.521Z" fill="#393737"/>
</svg>
