<svg width="120" height="120" viewBox="0 0 120 120" fill="none" xmlns="http://www.w3.org/2000/svg">
<path d="M25.7404 82.8687C25.7404 82.2294 25.7113 81.6191 25.7113 80.9798C25.7113 80.8635 25.6822 80.7182 25.8861 80.7182C26.0317 80.7182 26.1774 80.6892 26.2648 80.8926C26.4395 81.2994 26.6143 81.7063 26.8182 82.1712C27.0221 81.7353 27.1968 81.3576 27.3425 80.9507C27.4299 80.6892 27.6046 80.6892 27.8085 80.6892C28.0707 80.7183 27.9542 80.9217 27.9833 81.0379C28.0124 81.5029 28.0416 81.9678 28.0416 82.4618C28.0416 82.5781 28.1289 82.7524 27.8668 82.7815C27.6046 82.7815 27.6629 82.6071 27.6629 82.4618C27.6629 82.1131 27.6629 81.7935 27.6629 81.3576C27.4007 81.6772 27.3134 82.0259 27.1677 82.3456C27.1095 82.4909 27.0512 82.6072 26.8764 82.5781C26.7017 82.5781 26.6434 82.4618 26.5852 82.3165C26.4686 81.9969 26.3521 81.7063 26.2065 81.3576C26.09 81.8806 26.2939 82.4037 26.09 82.8396C25.9735 82.8687 25.857 82.8687 25.7404 82.8687Z" fill="#393737"/>
<path d="M24.2831 82.8686C24.2831 82.3164 24.2831 81.7643 24.3123 81.2122C24.3123 80.8925 24.1084 80.9797 23.9336 80.9506C23.7879 80.9216 23.5841 81.0378 23.5841 80.7763C23.6132 80.5438 23.8171 80.66 23.9336 80.631C24.3414 80.631 24.7492 80.631 25.1278 80.631C25.2444 80.631 25.4191 80.5729 25.39 80.8053C25.39 80.9797 25.2444 80.9797 25.157 80.9506C24.72 80.8634 24.6618 81.0959 24.6909 81.4446C24.7201 81.9096 24.6909 82.3746 24.72 82.8395C24.5744 82.8686 24.4288 82.8686 24.2831 82.8686Z" fill="#393737"/>
<path d="M52.5651 62.0035C53.905 63.9506 55.2157 65.8976 56.5847 67.8736C55.507 67.8736 54.4875 67.8736 53.468 67.8736C53.2642 67.8736 53.2059 67.6993 53.1476 67.583C52.0408 65.8685 50.9339 64.154 49.827 62.4394C49.6523 62.1779 49.4775 62.0617 49.1862 62.0907C48.691 62.1198 48.1959 62.1198 47.6716 62.0907C47.3512 62.0617 47.2929 62.1779 47.2929 62.4685C47.2929 64.1249 47.2929 65.8104 47.2929 67.4668C47.2929 67.7865 47.2346 67.8736 46.8851 67.8736C46.186 67.8446 45.5161 67.8446 44.817 67.8736C44.5549 67.8736 44.5257 67.7865 44.5257 67.554C44.5257 62.7882 44.5257 57.9933 44.5257 53.2274C44.5257 52.9659 44.584 52.8787 44.8462 52.8787C47.1473 52.8787 49.4484 52.8496 51.7495 52.8787C54.0215 52.9078 55.9439 54.7967 56.1187 57.0633C56.3809 59.6206 54.8662 61.5386 52.5651 62.0035ZM49.594 59.6206V59.5916C50.264 59.5916 50.9339 59.6206 51.6039 59.5916C52.769 59.5334 53.4098 58.8069 53.468 57.6155C53.5263 56.424 52.9146 55.6394 51.7786 55.4941C50.3805 55.3197 48.9532 55.465 47.5259 55.436C47.2638 55.436 47.322 55.6103 47.322 55.7556C47.322 56.9471 47.322 58.1386 47.322 59.3591C47.322 59.6497 47.4094 59.6787 47.6716 59.6787C48.3124 59.6206 48.9532 59.6206 49.594 59.6206Z" fill="#393737"/>
<path d="M94.1022 63.8343C92.1215 61.9454 92.675 59.0394 94.4518 57.7027C95.2382 57.1215 96.1121 56.8309 97.1024 56.8599C97.7724 56.889 98.4423 56.918 99.1123 57.1215C99.52 57.2377 99.957 57.1796 100.394 57.1796C101.239 57.1796 102.054 57.2086 102.899 57.1796C103.19 57.1796 103.278 57.2668 103.248 57.5283C103.219 57.7608 103.19 58.0223 103.219 58.2548C103.278 58.7198 103.074 58.836 102.637 58.836C102.258 58.836 101.879 58.8941 101.472 58.9232C102.054 60.0856 102.112 61.2189 101.676 62.3813C101.064 63.9796 99.4618 65.0258 97.7432 64.9676C97.2481 64.9386 96.7529 64.9386 96.2577 64.8223C95.8208 64.7352 95.3839 64.9386 95.2382 65.2873C95.0052 65.8104 95.2673 66.3044 95.8208 66.3625C96.6655 66.4206 97.5102 66.3916 98.3549 66.4206C99.3453 66.4497 100.307 66.5369 101.209 66.8856C102.345 67.3215 103.074 68.0771 103.219 69.3266C103.365 70.7215 102.986 71.913 101.734 72.6976C101.006 73.1626 100.19 73.366 99.3453 73.4532C97.5393 73.6275 95.7334 73.6275 94.044 72.8138C92.675 72.1455 91.9759 70.8959 92.1798 69.5591C92.2963 68.8036 92.7041 68.2224 93.4032 67.8446C93.5779 67.7283 93.607 67.6993 93.4614 67.5249C92.3254 66.1591 92.6167 64.7061 94.1022 63.8343ZM97.6267 68.4258C97.0733 68.4258 96.6364 68.4839 96.1994 68.4258C95.5878 68.3386 94.8596 68.9489 94.7139 69.4429C94.5683 69.995 94.8013 70.5472 95.5004 70.8959C96.9277 71.5933 98.3841 71.5933 99.8696 71.0702C100.51 70.8378 100.743 70.2856 100.627 69.5591C100.569 69.007 100.248 68.7164 99.5492 68.5711C98.8792 68.4258 98.1802 68.4839 97.6267 68.4258ZM99.5783 60.8993C99.5783 59.6787 98.7918 58.9813 97.452 59.0104C96.1412 59.0104 95.3547 59.7369 95.3547 60.9283C95.3547 62.1488 96.1412 62.8463 97.4811 62.8463C98.821 62.8172 99.5783 62.1198 99.5783 60.8993Z" fill="#393737"/>
<path d="M21.9819 66.2463C21.9819 64.2993 21.9819 62.4104 21.9819 60.4924C21.9819 60.2018 21.8945 60.0275 21.6324 59.8822C20.4381 59.2138 19.273 58.5454 18.1079 57.848C16.3602 56.8018 15.4281 55.2326 15.399 53.1984C15.3699 51.7744 15.399 50.3796 15.399 48.9556C15.399 48.5778 15.5155 48.6069 15.7776 48.7522C16.9136 49.4206 18.0496 50.0599 19.1856 50.7283C21.0207 51.8035 21.9528 53.4308 21.9528 55.5813C21.9528 56.8599 21.9528 58.1095 21.9528 59.3881C22.1567 59.4172 22.2732 59.301 22.3897 59.2138C24.6326 57.9351 26.8463 56.6565 29.0892 55.3488C29.497 55.1163 29.497 55.1163 29.497 55.5813C29.497 57.5574 29.497 59.5334 29.497 61.5386C29.497 61.7711 29.4678 61.9164 29.2348 62.0617C26.8754 63.3984 24.5161 64.7642 22.1858 66.1301C22.1567 66.1882 22.0984 66.1882 21.9819 66.2463Z" fill="#393737"/>
<path d="M107.357 58.3128C108.813 56.8598 110.474 56.5692 112.279 57.0923C113.852 57.5573 114.959 59.0684 114.988 60.6957C115.018 62.9915 114.988 65.2872 114.988 67.583C114.988 67.8154 114.93 67.9026 114.668 67.9026C114.027 67.8736 113.415 67.9026 112.775 67.9026C112.571 67.9026 112.513 67.8445 112.513 67.6411C112.542 65.5488 112.513 63.4855 112.542 61.3932C112.571 60.0564 111.58 59.0393 110.241 59.0974C109.745 59.1265 109.25 59.1265 108.784 59.388C107.823 59.9111 107.357 60.6957 107.357 61.8C107.357 63.6889 107.357 65.6069 107.357 67.4958C107.357 67.8154 107.299 67.9317 106.949 67.9317C106.366 67.9026 105.813 67.9026 105.23 67.9317C104.91 67.9317 104.852 67.8445 104.852 67.5539C104.852 65.0838 104.852 62.6137 104.852 60.1436C104.852 57.5282 104.852 54.9128 104.852 52.2974C104.852 52.0068 104.91 51.8615 105.23 51.8906C105.813 51.9196 106.396 51.9196 106.978 51.8906C107.269 51.8906 107.328 51.9778 107.328 52.2393C107.328 54.0701 107.328 55.9299 107.328 57.7607C107.357 57.906 107.357 58.0513 107.357 58.3128Z" fill="#393737"/>
<path d="M14.4956 61.0156C14.6121 60.9575 14.6703 61.0156 14.7286 61.0446C16.2432 61.9164 17.787 62.7301 19.2434 63.66C20.9911 64.7353 21.9232 66.3626 21.9232 68.3968C21.9523 73.0755 21.9232 77.7832 21.9523 82.4618C21.9523 82.7234 21.8941 82.8396 21.6319 82.8106C21.2241 82.7815 20.729 82.9559 20.4668 82.7234C20.2338 82.4909 20.3794 81.9969 20.3794 81.6191C20.3794 78.684 20.3794 75.749 20.3794 72.8139C20.3794 72.4943 20.292 72.3199 20.0008 72.1746C19.1852 71.7387 18.3987 71.3028 17.6123 70.8669C15.8063 69.8789 14.7286 68.3678 14.5247 66.3336C14.379 64.5318 14.5247 62.7592 14.4956 61.0156Z" fill="#393737"/>
<path d="M81.4024 63.3403C80.2081 63.3403 78.9848 63.3694 77.7905 63.3403C77.4119 63.3403 77.3827 63.4565 77.4701 63.7762C77.907 65.3454 79.4799 66.2463 81.2276 65.8976C81.8976 65.7523 82.5093 65.4907 83.0336 65.0548C83.2375 64.8805 83.354 64.9095 83.4996 65.0839C83.8783 65.5198 84.2861 65.9266 84.6939 66.3044C84.8395 66.4497 84.8395 66.5078 84.6939 66.6531C82.9753 68.1061 80.9655 68.542 78.8391 67.9608C76.771 67.4087 75.4312 65.9847 74.9651 63.8924C74.2078 60.4343 76.0428 57.8189 78.7517 57.0924C80.8198 56.5693 82.8005 56.8018 84.3443 58.5163C85.5677 59.8531 85.8007 61.4223 85.4221 63.1659C85.3638 63.4275 85.2182 63.3694 85.0434 63.3694C83.82 63.3403 82.5966 63.3403 81.4024 63.3403ZM80.2081 61.5386C81.0237 61.5386 81.8684 61.5095 82.684 61.5386C83.0627 61.5676 83.121 61.3933 83.0336 61.1027C82.8879 60.5215 82.6258 60.0565 82.1597 59.6787C81.4898 59.1266 80.6742 59.0685 79.8586 59.1557C78.7226 59.2719 77.7323 60.1437 77.441 61.2189C77.3827 61.4805 77.4119 61.5386 77.674 61.5386C78.5187 61.5095 79.3634 61.5386 80.2081 61.5386Z" fill="#393737"/>
<path d="M65.2671 66.3626C64.0729 67.7575 62.5874 68.2806 60.8979 68.1353C59.3833 68.019 58.0725 66.8566 57.8104 65.3165C57.5191 63.7472 58.2473 62.4686 59.7328 61.8002C60.8979 61.2771 62.1213 61.2771 63.3447 61.3934C63.869 61.4515 64.3642 61.5387 64.8594 61.684C65.0924 61.7421 65.1506 61.684 65.1506 61.4515C65.1798 60.0566 64.4516 59.2429 63.0243 59.1267C61.8009 59.0395 60.6649 59.3011 59.6454 59.9985C59.4124 60.1438 59.325 60.1147 59.2085 59.8823C59.0046 59.4464 58.7716 59.0395 58.5386 58.6327C58.4221 58.4292 58.4221 58.313 58.6551 58.1677C59.9076 57.354 61.2475 56.9472 62.733 56.86C63.5486 56.831 64.335 56.831 65.0924 57.1506C66.607 57.7899 67.5974 59.272 67.5974 60.8994C67.5974 63.0788 67.5683 65.2583 67.5683 67.4378C67.5683 67.7866 67.4809 67.9028 67.1313 67.8737C66.6653 67.8447 66.1992 67.8447 65.7041 67.8737C65.5002 67.8737 65.4419 67.8156 65.4128 67.6122C65.3837 67.2344 65.3254 66.8566 65.2671 66.3626ZM62.0048 66.043C63.4321 66.1011 64.5681 65.2874 64.9467 63.9797C65.0341 63.631 65.0341 63.4276 64.6263 63.3694C63.8399 63.2241 63.0534 63.0789 62.2378 63.1079C61.83 63.1079 61.4222 63.166 61.0145 63.3404C60.3736 63.631 60.0824 64.1831 60.1989 64.9096C60.2863 65.5199 60.694 65.8977 61.3931 65.9848C61.6261 66.0139 61.83 66.0139 62.0048 66.043Z" fill="#393737"/>
<path d="M70.1884 59.8822C70.1884 57.3539 70.1884 54.7967 70.1884 52.2684C70.1884 51.9488 70.2466 51.8616 70.5962 51.8616C71.1787 51.8907 71.7613 51.8907 72.3438 51.8616C72.7225 51.8326 72.7225 52.036 72.7225 52.2975C72.7225 56.424 72.7225 60.5505 72.7225 64.648C72.7225 65.607 72.7225 66.595 72.7225 67.554C72.7225 67.8155 72.6643 67.9027 72.4021 67.8737C71.7904 67.8446 71.1787 67.8446 70.567 67.8737C70.2757 67.8737 70.2175 67.7865 70.2175 67.5249C70.1884 64.9967 70.1884 62.4394 70.1884 59.8822Z" fill="#393737"/>
<path d="M21.9808 52.3265C21.9808 50.9025 22.039 49.4495 21.9516 47.9965C21.8934 47.0957 22.1847 46.6016 23.0002 46.1948C24.5732 45.4102 26.0587 44.4803 27.5733 43.5794C27.6899 43.5213 27.8064 43.4632 27.952 43.376C27.952 43.8119 27.952 44.1897 27.952 44.5674C27.952 45.9333 27.952 47.27 27.952 48.6358C27.952 48.8393 27.9229 49.0136 27.719 49.1299C25.8839 50.176 24.0489 51.2512 22.2429 52.2974C22.1847 52.3265 22.0973 52.3846 21.9808 52.3265Z" fill="#393737"/>
<path d="M5.02913 57.877C6.25251 58.6035 7.47588 59.1847 8.55362 59.9693C9.777 60.8411 10.3887 62.0907 10.4469 63.6018C10.4761 64.5027 10.4469 65.4326 10.4469 66.3334C10.2722 66.3625 10.1557 66.2463 10.0392 66.1882C9.19444 65.7232 8.37885 65.2292 7.53414 64.7642C5.87384 63.8052 5.02913 62.3522 5 60.4343C5.02913 59.5915 5.02913 58.7779 5.02913 57.877Z" fill="#393737"/>
<path d="M90.3171 62.4974C90.3171 64.1829 90.3171 65.8684 90.3171 67.5539C90.3171 67.8154 90.2589 67.9317 89.9676 67.9026C89.3559 67.8735 88.7442 67.8735 88.1325 67.9026C87.8995 67.9026 87.783 67.8735 87.783 67.5829C87.783 64.212 87.783 60.841 87.783 57.4991C87.783 57.2376 87.8413 57.1504 88.1034 57.1504C88.7151 57.1795 89.3268 57.1795 89.9385 57.1504C90.2006 57.1504 90.2589 57.2376 90.2589 57.4991C90.2589 59.1555 90.2589 60.841 90.2589 62.4974C90.288 62.4974 90.3171 62.4974 90.3171 62.4974Z" fill="#393737"/>
<path d="M33.6925 60.6667C33.6925 61.4803 33.6925 62.2068 33.6925 62.9043C33.6925 63.747 33.6925 64.5898 33.6925 65.4325C33.6925 65.6359 33.6633 65.7812 33.4594 65.8975C31.9156 66.7693 30.3719 67.6701 28.8281 68.571C28.7989 68.571 28.7698 68.571 28.7116 68.571C28.7116 67.4376 28.7116 66.3335 28.7116 65.2001C28.7116 64.648 28.5659 64.0086 28.7698 63.5727C29.0028 63.1077 29.7019 62.9624 30.1971 62.6718C31.3331 62.0034 32.4691 61.3641 33.6925 60.6667Z" fill="#393737"/>
<path d="M8.96213 52.53C9.92335 53.1112 10.8846 53.6052 11.7584 54.2445C13.0109 55.1163 13.6517 56.3368 13.71 57.877C13.7391 58.7198 13.71 59.5625 13.71 60.4343C12.5157 59.6787 11.1176 59.2428 10.1272 58.1386C9.42819 57.3539 8.99126 56.4531 8.96213 55.4069C8.933 54.477 8.96213 53.5471 8.96213 52.53Z" fill="#393737"/>
<path d="M33.7496 59.4173C33.7496 58.0805 33.7496 56.8019 33.7496 55.5233C33.7496 55.378 33.837 55.3198 33.9244 55.2617C35.5555 54.3027 37.2158 53.3728 38.847 52.4138C38.9926 52.472 38.9344 52.5882 38.9344 52.6754C38.9344 53.8378 38.9344 54.9711 38.9344 56.1335C38.9344 56.3369 38.9053 56.4822 38.7014 56.5985C37.0993 57.4993 35.5264 58.4292 33.9244 59.3592C33.8952 59.3882 33.837 59.3882 33.7496 59.4173Z" fill="#393737"/>
<path d="M23.6123 75.6327C23.6123 74.4703 23.6123 73.3951 23.6123 72.3199C23.6123 72.1456 23.6706 72.0584 23.8162 71.9712C25.127 71.2156 26.4669 70.4601 27.7776 69.6755C27.9815 69.5592 28.0689 69.5592 28.0689 69.8208C28.0689 70.8088 28.0689 71.7968 28.0689 72.7558C28.0689 72.9011 28.0689 73.0174 27.8941 73.1045C26.496 73.9473 25.0979 74.7609 23.6123 75.6327Z" fill="#393737"/>
<path d="M28.7403 53.2856C28.7403 52.1523 28.7403 51.019 28.7403 49.8856C28.7403 49.7403 28.7986 49.6822 28.9151 49.6241C30.2259 48.8685 31.5075 48.142 32.8182 47.3865C32.8474 47.3865 32.8765 47.3865 32.9348 47.3865C32.9348 48.5198 32.9348 49.6531 32.9348 50.7865C32.9348 50.9318 32.8765 50.9899 32.76 51.048C31.4492 51.8036 30.1676 52.5301 28.8568 53.2856C28.8568 53.3147 28.7986 53.2856 28.7403 53.2856Z" fill="#393737"/>
<path d="M15.3985 73.5113C14.3499 72.901 13.3595 72.3489 12.4274 71.7386C11.4079 71.0412 10.9128 70.0241 10.8545 68.8036C10.8545 68.4258 10.8545 68.0771 10.8545 67.6993C11.0002 67.6412 11.0875 67.7284 11.1749 67.7865C11.8449 68.1643 12.5439 68.5711 13.2139 68.9489C14.6703 69.7626 15.3694 71.0121 15.3694 72.6685C15.3985 72.901 15.3985 73.1335 15.3985 73.5113Z" fill="#393737"/>
<path d="M17.9905 40.2957C18.8934 40.8479 19.7964 41.3128 20.612 41.865C21.4276 42.4171 21.8645 43.2308 21.9228 44.1898C21.981 44.8 21.9228 45.4103 21.9228 46.0787C21.6897 45.9624 21.515 45.8462 21.3402 45.759C20.7576 45.4103 20.1459 45.0616 19.5634 44.7128C18.573 44.1026 18.0196 43.2308 17.9613 42.0393C17.9613 41.5162 17.9905 40.9641 17.9905 40.2957Z" fill="#393737"/>
<path d="M14.4961 48.9264C13.797 48.4905 13.1271 48.1418 12.4862 47.7059C11.8454 47.241 11.4959 46.5726 11.4668 45.7589C11.4376 45.0615 11.4668 44.335 11.4668 43.5503C12.2823 44.0734 13.1562 44.3931 13.797 45.0615C14.2339 45.4974 14.4378 46.0495 14.4669 46.6888C14.4961 47.4153 14.4961 48.1128 14.4961 48.9264Z" fill="#393737"/>
<path d="M34.4789 68.4839C34.4789 67.4668 34.4789 66.5078 34.4789 65.5488C34.4789 65.3745 34.5663 65.2873 34.712 65.2292C35.5567 64.7642 36.3723 64.2702 37.1878 63.8052C37.4209 63.689 37.4791 63.7181 37.4791 63.9796C37.4791 64.8223 37.4791 65.6651 37.4791 66.5078C37.4791 66.6241 37.4791 66.7694 37.3335 66.8275C36.4014 67.3506 35.4693 67.9027 34.4789 68.4839Z" fill="#393737"/>
<path d="M24.894 38C24.894 38.959 24.894 39.8017 24.894 40.6735C24.894 40.8479 24.8357 40.9351 24.6901 40.9932C23.8745 41.4581 23.0881 41.894 22.2725 42.359C22.0395 42.5043 21.9812 42.4171 21.9812 42.1846C21.9812 41.4291 21.9812 40.6735 21.9812 39.918C21.9812 39.8017 21.9812 39.6564 22.1268 39.5983C23.0007 39.1043 23.9037 38.5812 24.894 38Z" fill="#393737"/>
<path d="M89.093 55.6686C88.2192 55.6686 87.5201 54.9711 87.5201 54.0993C87.5201 53.2275 88.2483 52.501 89.1221 52.501C89.996 52.501 90.695 53.2275 90.6659 54.0993C90.6368 54.9711 89.9668 55.6686 89.093 55.6686Z" fill="#393737"/>
<path d="M5.8143 48.8394C7.76588 49.7112 8.31931 50.3505 8.11541 52.4428C6.16384 51.6001 5.6104 50.9026 5.8143 48.8394Z" fill="#393737"/>
<path d="M32.2061 45.9625C32.2061 45.2651 32.2061 44.6258 32.2061 44.0155C32.2061 43.8702 32.2061 43.783 32.3517 43.6958C33.0217 43.3181 33.6916 42.9112 34.449 42.5044C34.449 43.2018 34.449 43.8702 34.449 44.5095C34.449 44.6258 34.3907 44.713 34.2742 44.7711C33.6042 45.1489 32.9634 45.5266 32.2061 45.9625Z" fill="#393737"/>
</svg>
