<svg width="120" height="120" viewBox="0 0 120 120" fill="none" xmlns="http://www.w3.org/2000/svg">
<path fill-rule="evenodd" clip-rule="evenodd" d="M50.8561 46.7986C49.835 47.4317 49.3093 48.6277 49.4646 49.9648C49.5917 51.0605 49.9124 51.5561 51.736 53.4734C53.3985 55.2218 53.4005 55.2246 53.4005 55.9982C53.4005 56.6492 53.3361 56.8241 52.9964 57.0958C52.7741 57.2735 52.441 57.419 52.2561 57.419C51.8164 57.419 51.3127 56.8553 51.1415 56.1716C51.0075 55.6361 50.9884 55.6249 50.1321 55.579C49.2978 55.5343 49.2592 55.5491 49.2592 55.9102C49.2592 56.4351 49.648 57.5029 50.046 58.0713C50.7746 59.1114 52.614 59.4488 53.8711 58.7728C54.7716 58.2888 55.2922 57.2862 55.2922 56.0359C55.2922 54.8196 54.733 53.8103 53.2832 52.4101C51.7515 50.931 51.4066 50.388 51.4066 49.456C51.4066 48.8337 51.4743 48.6553 51.8141 48.3835C52.4621 47.8653 53.1597 48.2357 53.3541 49.2014C53.4482 49.6693 53.3493 49.6571 54.781 49.3762C55.3042 49.2734 55.3427 49.0796 55.0037 48.2552C54.7232 47.5726 54.2498 47.0261 53.6766 46.7228C53.0594 46.3963 51.4345 46.4399 50.8561 46.7986ZM61.6587 46.9539C61.1946 47.253 60.8502 47.6355 60.6317 48.0945C60.3223 48.7443 60.3028 49.0158 60.3037 52.6734C60.3042 54.8118 60.3743 56.8166 60.4594 57.1285C60.6634 57.8748 61.7813 58.9244 62.5229 59.0658C63.9118 59.3307 65.3197 58.6757 65.8334 57.5257C66.0806 56.9716 66.1251 56.4907 66.128 54.3393L66.1314 51.8054H63.2171V53.6568L64.2141 53.7546L64.2584 55.1199C64.2998 56.3975 64.2782 56.5104 63.9202 56.8742C63.4545 57.3478 63.08 57.3657 62.5476 56.9398L62.1434 56.6167V52.8424C62.1434 48.5826 62.1896 48.3749 63.1379 48.3749C63.8903 48.3749 64.2908 48.9509 64.2908 50.0333V50.8698H66.1314V49.7705C66.1314 48.2315 65.6818 47.3782 64.5653 46.7991C63.68 46.3397 62.5152 46.4017 61.6587 46.9539ZM67.8186 58.9783H69.6698L69.6262 55.2358C69.6021 53.1775 69.617 51.494 69.6592 51.495C69.7014 51.4958 70.2648 53.1624 70.911 55.1985L72.086 58.9004L74.1109 58.9927L74.0306 46.5817L72.2718 46.4883L72.19 54.6902L71.3064 51.6495C70.8203 49.9771 70.2822 48.1351 70.1105 47.5563L69.7982 46.5037H67.8186V58.9783ZM104.58 46.6077C104.523 46.6648 104.477 49.4716 104.477 52.845V58.9783H109.692V57.1071H106.307L106.395 53.7546L108.772 53.6635V51.8054H106.318V48.5308H109.692V46.5037H107.187C105.809 46.5037 104.636 46.5505 104.58 46.6077ZM56.9353 58.9783H58.769V46.6597L56.8517 46.6595L56.9353 58.9783ZM77.6352 46.8062C77.6352 46.8867 77.1865 49.6275 76.6382 52.897C76.0898 56.1664 75.6412 58.8722 75.6412 58.9097C75.6412 58.9475 76.0766 58.9783 76.6089 58.9783H77.5764L77.9672 56.1716H78.9325C80.0284 56.1716 79.9592 56.0696 80.1741 58.0038L80.2822 58.9783H81.2595C81.9027 58.9783 82.2367 58.9161 82.2367 58.7961C82.2367 58.6197 80.4757 47.955 80.3036 47.0885C80.2186 46.6615 80.2128 46.6597 78.9268 46.6597C78.2163 46.6597 77.6352 46.7256 77.6352 46.8062ZM82.0833 48.5308H84.0773V58.9783H85.9179V48.5457L87.8352 48.4529L87.9272 46.6597H82.0833V48.5308ZM89.2932 51.6105C89.2937 54.4636 89.3596 56.8017 89.4489 57.1285C89.6529 57.8748 90.7708 58.9244 91.5124 59.0658C92.9036 59.3312 94.2365 58.71 94.7956 57.536C95.1068 56.8824 95.1209 56.6311 95.1209 51.7562V46.6597H93.2926L93.2036 56.6673L92.8415 56.9651C92.3761 57.3481 92.0393 57.3415 91.5371 56.9398L91.1329 56.6167V46.6597H89.2923L89.2932 51.6105ZM96.8081 58.9783H98.6487V54.3004H99.8126L100.251 56.1326C101.014 59.3181 100.811 58.9783 101.954 58.9783C102.498 58.9783 102.943 58.9609 102.941 58.9394C102.94 58.9178 102.632 57.7143 102.257 56.2648L101.575 53.6292L101.941 53.1867C102.442 52.5817 102.696 51.218 102.584 49.7332C102.477 48.3155 102.173 47.5691 101.506 47.0853C101.076 46.7736 100.808 46.7323 98.9171 46.6868L96.8081 46.6361V58.9783ZM100.489 48.8427C100.744 49.1017 100.796 49.3624 100.796 50.381C100.796 52.0097 100.511 52.4292 99.4044 52.4292H98.6487V48.5308H99.4156C99.9781 48.5308 100.264 48.614 100.489 48.8427ZM79.2435 51.5848C79.3687 52.5209 79.5098 53.5149 79.5571 53.7936L79.6431 54.3004H78.9355C78.335 54.3004 78.2395 54.259 78.3039 54.0275C78.3456 53.8773 78.499 52.8591 78.6447 51.7646C78.7904 50.6701 78.9335 49.7989 78.9628 49.8287C78.992 49.8583 79.1184 50.6486 79.2435 51.5848ZM54.2248 61.7407C54.0455 61.7742 53.7349 61.9791 53.5346 62.1959C53.1898 62.5689 53.1705 62.698 53.1705 64.618V66.646L53.6009 67.0224C53.8961 67.2807 54.2182 67.3987 54.6276 67.3987C55.037 67.3987 55.3591 67.2807 55.6544 67.0224L56.0848 66.646V64.6089C56.0848 62.64 56.0719 62.5593 55.7013 62.1971C55.2974 61.8024 54.7684 61.6389 54.2248 61.7407ZM71.3868 61.8146C70.6057 62.0259 70.4261 62.5606 70.4261 64.6741C70.4261 66.47 70.4304 66.4913 70.8745 66.9429C71.4656 67.5437 72.3416 67.5751 72.9346 67.0164C73.3332 66.6407 73.3404 66.5978 73.3404 64.6167C73.3404 62.9256 73.297 62.5458 73.072 62.2681C72.7232 61.8375 72.0109 61.6459 71.3868 61.8146ZM81.9259 61.8445C81.28 62.0575 80.9401 62.6855 81.0751 63.4167C81.1418 63.7779 81.4447 64.1884 82.0974 64.8017C82.8658 65.5236 83.0165 65.7474 82.976 66.1071C82.9082 66.7073 82.3491 66.7826 81.9986 66.2387C81.8415 65.995 81.5987 65.8394 81.3754 65.8394C80.9677 65.8394 80.9033 66.1247 81.188 66.6683C81.4696 67.2057 81.803 67.3884 82.512 67.3937C83.4116 67.4006 83.9239 66.8902 83.9239 65.9872C83.9239 65.4031 83.8375 65.2568 83.0224 64.4598C82.0043 63.4642 81.7988 63.0323 82.1655 62.6594C82.4552 62.3649 83.0036 62.5724 83.0036 62.9768C83.0036 63.1363 83.0884 63.1888 83.2462 63.1272C83.3797 63.0752 83.5867 63.0326 83.7064 63.0326C84.0039 63.0326 83.9796 62.6682 83.6555 62.2681C83.2806 61.8054 82.5715 61.6317 81.9259 61.8445ZM90.0867 61.8215C89.7057 61.9219 89.5202 62.0947 89.3506 62.5076C89.0256 63.2981 89.2811 63.9549 90.2266 64.7597C91.1673 65.5604 91.3552 65.8849 91.128 66.3167C90.909 66.7326 90.3407 66.6601 90.1379 66.1902C90.0335 65.9482 89.8551 65.8394 89.5627 65.8394C88.9851 65.8394 88.9963 66.3421 89.5873 66.9429C90.7445 68.1194 92.7367 66.8646 92.0018 65.422C91.8785 65.1798 91.4256 64.6573 90.9952 64.2606C90.1626 63.4932 89.9914 62.9454 90.4608 62.5495C90.6743 62.3694 90.7548 62.3948 91.036 62.7315C91.4115 63.181 92.0532 63.1845 92.0532 62.7371C92.0532 62.3799 91.4661 61.8434 90.9795 61.7561C90.7686 61.7182 90.3669 61.7477 90.0867 61.8215ZM108.05 61.8134C107.436 61.9796 107.085 62.4739 107.085 63.1728C107.085 63.6297 107.237 63.864 108.09 64.7182C108.893 65.5224 109.086 65.8073 109.049 66.1332C109.013 66.4477 108.906 66.5523 108.58 66.5904C108.246 66.6295 108.128 66.5567 108.009 66.2395C107.896 65.9375 107.751 65.8394 107.417 65.8394C107.028 65.8394 106.983 65.8868 107.047 66.2255C107.256 67.3373 108.831 67.8208 109.623 67.0159C110.033 66.5992 110.118 65.8991 109.828 65.3223C109.734 65.135 109.286 64.6267 108.831 64.1927C107.965 63.365 107.848 63.0586 108.246 62.6541C108.531 62.3643 109.079 62.5765 109.079 62.9768C109.079 63.1363 109.164 63.1888 109.321 63.1272C109.455 63.0752 109.662 63.0326 109.782 63.0326C110.079 63.0326 110.055 62.6682 109.731 62.2681C109.383 61.8386 108.67 61.6457 108.05 61.8134ZM49.329 62.1679C48.9674 62.5353 48.9524 62.6325 48.9524 64.5919C48.9524 66.5514 48.9674 66.6485 49.329 67.0159C50.2072 67.9089 51.8667 67.1985 51.8667 65.9294C51.8667 65.4135 51.832 65.3716 51.4066 65.3716C51.0216 65.3716 50.9464 65.4335 50.9464 65.7503C50.9464 66.1077 50.597 66.619 50.3527 66.619C49.9805 66.619 49.8727 66.1378 49.8727 64.4779C49.8727 62.9858 49.9118 62.6958 50.1236 62.613C50.4882 62.4708 50.8624 62.7675 50.9182 63.2433C50.9584 63.5849 51.0446 63.6563 51.4167 63.6563C51.7975 63.6563 51.8667 63.5949 51.8667 63.2562C51.8667 62.3441 51.3062 61.7971 50.3643 61.7901C49.865 61.7864 49.6141 61.8779 49.329 62.1679ZM57.4652 67.3207H58.3855V65.7351C58.3855 64.8629 58.42 64.1835 58.4622 64.2253C58.5044 64.2671 58.7865 64.9807 59.0891 65.811C59.6144 67.2528 59.661 67.3229 60.1244 67.3696L60.6096 67.4185V61.7851H59.6893L59.6652 65.2936L58.515 61.8631L57.3813 61.7658L57.4652 67.3207ZM61.99 62.175C61.99 62.5041 62.0617 62.5648 62.4502 62.5648H62.9103V67.3987H63.8227L63.9073 62.6428L64.4058 62.594C64.8187 62.5534 64.9043 62.4798 64.9043 62.1651C64.9043 61.789 64.8891 61.7851 63.4472 61.7851C61.9951 61.7851 61.99 61.7865 61.99 62.175ZM66.1314 67.3987H67.0517V66.3072C67.0517 65.3329 67.0834 65.2157 67.3476 65.2157C67.5767 65.2157 67.6994 65.4177 67.8915 66.1123C68.028 66.6053 68.1688 67.0967 68.2044 67.2038C68.2728 67.4099 69.1991 67.482 69.1991 67.2813C69.1991 67.2167 69.0619 66.6766 68.8944 66.0811C68.6214 65.1102 68.6134 64.9616 68.8177 64.6446C68.9506 64.4385 69.0457 63.928 69.0457 63.4209C69.0457 62.7048 68.979 62.4828 68.6691 62.1679C68.3407 61.8339 68.1548 61.7851 67.212 61.7851H66.1314V67.3987ZM74.7209 67.4113L75.9863 67.366C77.2219 67.3218 77.2517 67.3115 77.2517 66.9309C77.2517 66.5706 77.1908 66.5375 76.4464 66.494L75.6412 66.4467V61.7851H74.7209V67.4113ZM85.4692 63.3555C85.9892 64.7117 86.0713 65.0943 86.0713 66.1623V67.3987H86.9916V66.2593C86.9916 65.3009 87.089 64.866 87.6051 63.5196C87.9425 62.6393 88.2186 61.889 88.2186 61.852C88.2186 61.8152 87.9879 61.7851 87.706 61.7851C87.2126 61.7851 87.1831 61.8201 86.9133 62.7257C86.7593 63.2431 86.5843 63.6114 86.5245 63.5444C86.4647 63.4773 86.2981 63.054 86.1545 62.6038C85.9084 61.8324 85.8636 61.7851 85.3803 61.7851H84.8673L85.4692 63.3555ZM93.3976 62.1669C93.3354 62.4985 93.3881 62.5547 93.8016 62.5957L94.2773 62.6428L94.3619 67.3987H95.2743V62.5648H95.7344C96.1229 62.5648 96.1946 62.5041 96.1946 62.175C96.1946 61.7884 96.1832 61.7851 94.8321 61.7851C93.5082 61.7851 93.4674 61.796 93.3976 62.1669ZM97.575 67.3987H100.183V66.9309C100.183 66.4678 100.174 66.4631 99.3389 66.4631H98.4953V65.0597H99.1089C99.6883 65.0597 99.7224 65.0337 99.7224 64.5919C99.7224 64.1502 99.6883 64.1241 99.1089 64.1241H98.4953V62.5648H99.3389C100.137 62.5648 100.183 62.5436 100.183 62.175C100.183 61.7897 100.167 61.7851 98.8788 61.7851H97.575V67.3987ZM101.41 67.3987H102.33L102.356 64.2021L102.764 65.7614C103.143 67.204 103.202 67.3207 103.553 67.3207C103.905 67.3207 103.957 67.2161 104.274 65.8597C104.462 65.0561 104.654 64.3604 104.7 64.3134C104.746 64.2665 104.784 64.9415 104.784 65.8133V67.3987H105.704V61.7851H104.377L104.043 63.3987C103.86 64.2863 103.71 65.1424 103.71 65.3011C103.71 65.9852 103.422 65.1728 103.084 63.5394L102.722 61.7851H101.41V67.3987ZM55.0546 64.4137C55.1057 66.4909 54.8901 67.0195 54.255 66.3741C54.0675 66.1832 54.0141 65.7761 54.0141 64.5341C54.0141 62.8503 54.1334 62.5149 54.7025 62.5979C54.9879 62.6393 55.0143 62.7755 55.0546 64.4137ZM72.236 62.7519C72.3565 62.8743 72.4201 63.52 72.4201 64.6176C72.4201 66.1539 72.3933 66.3108 72.1035 66.4684C71.4937 66.8002 71.3464 66.4374 71.3464 64.6041C71.3464 62.9802 71.4558 62.5648 71.8833 62.5648C71.9761 62.5648 72.1348 62.649 72.236 62.7519ZM68.097 63.485C68.1488 64.2211 67.995 64.4294 67.3968 64.4336C67.0799 64.4358 67.0517 64.3649 67.0517 63.5685V62.7009L67.5502 62.7499C68.0211 62.796 68.0513 62.8366 68.097 63.485Z" fill="#393737"/>
<path d="M66.3956 70.5912V70.3682H68.4363V70.5912H67.5403V72.6088H67.223V70.5912H66.3956Z" fill="#393737"/>
<path d="M69.6769 70.3682V72.6088H69.3596V70.3682H69.6769Z" fill="#393737"/>
<path d="M70.877 72.6052V70.3682C71.1085 70.3398 71.3415 70.3257 71.5758 70.3257C71.9045 70.3257 72.1475 70.3906 72.3047 70.5204C72.4276 70.6242 72.489 70.7611 72.489 70.931C72.489 71.049 72.4447 71.1516 72.3561 71.2389C72.2704 71.3262 72.156 71.384 72.0131 71.4124V71.4159C72.1875 71.4395 72.3247 71.5056 72.4247 71.6141C72.5247 71.7203 72.5748 71.8548 72.5748 72.0177C72.5748 72.2324 72.4733 72.3952 72.2704 72.5061C72.096 72.6029 71.8645 72.6513 71.5758 72.6513C71.3643 72.6513 71.1314 72.6359 70.877 72.6052ZM71.1943 70.5593V71.3133H71.6401C71.7945 71.3133 71.9188 71.2814 72.0131 71.2177C72.1103 71.1516 72.1589 71.0643 72.1589 70.9557C72.1589 70.6749 71.9617 70.5345 71.5673 70.5345C71.4158 70.5345 71.2914 70.5428 71.1943 70.5593ZM71.1943 71.5327V72.4176C71.3143 72.4318 71.4544 72.4389 71.6144 72.4389C72.0289 72.4389 72.2361 72.2973 72.2361 72.0141C72.2361 71.8631 72.1832 71.7451 72.0774 71.6601C71.9745 71.5752 71.8288 71.5327 71.6401 71.5327H71.1943Z" fill="#393737"/>
<path d="M74.1721 70.3682H74.5022L75.4754 72.6088H75.1496L74.9309 72.0849H73.7519L73.529 72.6088H73.1989L74.1721 70.3682ZM74.335 70.6619L73.8377 71.8654H74.8366L74.335 70.6619Z" fill="#393737"/>
<path d="M79.5602 70.5487L79.4316 70.7009C79.2372 70.6018 79.0371 70.5522 78.8314 70.5522C78.5713 70.5522 78.3612 70.6443 78.2011 70.8283C78.0525 71.0006 77.9782 71.2271 77.9782 71.5079C77.9782 71.81 78.0682 72.0436 78.2483 72.2088C78.4026 72.3504 78.6027 72.4212 78.8485 72.4212C79.0314 72.4212 79.2029 72.3929 79.363 72.3362V71.6495H78.8785V71.4194H79.6759V72.4495C79.4044 72.584 79.1157 72.6513 78.8099 72.6513C78.4041 72.6513 78.0954 72.5168 77.8839 72.2477C77.721 72.0401 77.6395 71.7888 77.6395 71.4938C77.6395 71.1634 77.751 70.8838 77.9739 70.6549C78.1883 70.4354 78.4627 70.3257 78.7971 70.3257C79.0829 70.3257 79.3372 70.4 79.5602 70.5487Z" fill="#393737"/>
<path d="M80.7853 72.6088V70.3682C81.0396 70.3398 81.2597 70.3257 81.4455 70.3257C82.0857 70.3257 82.4058 70.5522 82.4058 71.0053C82.4058 71.3144 82.2458 71.5221 81.9257 71.6283L82.4701 72.6088H82.1486L81.647 71.692L81.6427 71.6885C81.5941 71.6932 81.5341 71.6955 81.4626 71.6955C81.3512 71.6955 81.2311 71.6885 81.1025 71.6743V72.6088H80.7853ZM81.1025 70.5593V71.4619C81.2054 71.4761 81.3197 71.4832 81.4455 71.4832C81.8628 71.4832 82.0714 71.3239 82.0714 71.0053C82.0714 70.6914 81.8628 70.5345 81.4455 70.5345C81.314 70.5345 81.1997 70.5428 81.1025 70.5593Z" fill="#393737"/>
<path d="M84.4443 72.6513C84.0528 72.6513 83.7484 72.5179 83.5312 72.2513C83.3625 72.0436 83.2782 71.7911 83.2782 71.4938C83.2782 71.1492 83.3897 70.8661 83.6126 70.6443C83.8241 70.4319 84.1014 70.3257 84.4443 70.3257C84.8359 70.3257 85.1403 70.4602 85.3575 70.7292C85.5261 70.9416 85.6105 71.1964 85.6105 71.4938C85.6105 71.8383 85.499 72.1203 85.2761 72.3398C85.0646 72.5474 84.7873 72.6513 84.4443 72.6513ZM83.6169 71.4938C83.6169 71.7911 83.6955 72.0236 83.8527 72.1911C83.9985 72.3445 84.1957 72.4212 84.4443 72.4212C84.7301 72.4212 84.9459 72.3221 85.0917 72.1238C85.2117 71.961 85.2718 71.751 85.2718 71.4938C85.2718 71.1964 85.1932 70.9628 85.036 70.7929C84.8902 70.6325 84.693 70.5522 84.4443 70.5522C84.1614 70.5522 83.9456 70.6549 83.797 70.8602C83.6769 71.0254 83.6169 71.2366 83.6169 71.4938Z" fill="#393737"/>
<path d="M86.6375 70.3682H86.959V71.7522C86.959 72.1982 87.1748 72.4212 87.6064 72.4212C88.0351 72.4212 88.2495 72.1982 88.2495 71.7522V70.3682H88.5753V71.6743C88.5753 72.3256 88.2523 72.6513 87.6064 72.6513C86.9604 72.6513 86.6375 72.3256 86.6375 71.6743V70.3682Z" fill="#393737"/>
<path d="M89.775 72.6088V70.3682C90.0294 70.3398 90.2495 70.3257 90.4353 70.3257C91.0755 70.3257 91.3956 70.5522 91.3956 71.0053C91.3956 71.2342 91.3056 71.41 91.1255 71.5327C90.9626 71.6413 90.7439 71.6955 90.4696 71.6955C90.3466 71.6955 90.2209 71.6885 90.0923 71.6743V72.6088H89.775ZM90.0923 70.5593V71.4619C90.1952 71.4761 90.3152 71.4832 90.4524 71.4832C90.8583 71.4832 91.0612 71.3239 91.0612 71.0053C91.0612 70.6914 90.8525 70.5345 90.4353 70.5345C90.3038 70.5345 90.1895 70.5428 90.0923 70.5593Z" fill="#393737"/>
<path d="M94.304 70.907H110.002V71.4884H94.304V70.907Z" fill="#393737"/>
<path d="M48.9524 70.907H64.6501V71.4884H48.9524V70.907Z" fill="#393737"/>
<path fill-rule="evenodd" clip-rule="evenodd" d="M43.7209 59.5698C43.7209 68.721 36.1722 76.1395 26.8605 76.1395C17.5487 76.1395 10 68.721 10 59.5698C10 50.4185 17.5487 43 26.8605 43C36.1722 43 43.7209 50.4185 43.7209 59.5698ZM34.376 48.2735L22.4122 63.8913C18.0238 60.6445 17.1445 54.5164 20.4482 50.2036C23.7519 45.8909 29.9876 45.0267 34.376 48.2735ZM31.3742 55.0792L19.4105 70.697C23.7989 73.9437 30.0345 73.0796 33.3383 68.7668C36.642 64.4541 35.7626 58.3259 31.3742 55.0792Z" fill="#393737"/>
</svg>
