<svg width="120" height="120" viewBox="0 0 120 120" fill="none" xmlns="http://www.w3.org/2000/svg">
<path fill-rule="evenodd" clip-rule="evenodd" d="M22.4693 73.2836C29.7273 73.2836 35.6111 67.3998 35.6111 60.1418C35.6111 52.8838 29.7273 47 22.4693 47C15.2113 47 9.32748 52.8838 9.32748 60.1418C9.32748 67.3998 15.2113 73.2836 22.4693 73.2836ZM22.4693 74.2836C30.2796 74.2836 36.6111 67.9521 36.6111 60.1418C36.6111 52.3315 30.2796 46 22.4693 46C14.659 46 8.32748 52.3315 8.32748 60.1418C8.32748 67.9521 14.659 74.2836 22.4693 74.2836Z" fill="#393737"/>
<path fill-rule="evenodd" clip-rule="evenodd" d="M11.0378 50.6824C10.3486 50.8633 9.63088 51.0672 9.44291 51.1354C8.93345 51.3207 10.9077 52.1617 22.316 56.6209C35.2972 61.6946 36.485 62.1445 36.9035 62.1445C37.0922 62.1445 37.9775 61.6136 38.8707 60.9646L40.495 59.7848L38.4685 59.1488C37.3539 58.799 36.4164 58.5107 36.3852 58.5082C36.3539 58.5057 36.3282 58.6473 36.3282 58.8227C36.3282 59.0639 35.5905 58.9055 33.3093 58.1749C18.7801 53.5211 12.0455 51.3446 11.9496 51.2713C11.887 51.2237 12.0152 51.054 12.2344 50.894C12.6439 50.595 12.7648 50.296 12.4618 50.3327C12.3679 50.344 11.727 50.5013 11.0378 50.6824ZM21.7486 50.5149C21.3813 50.6171 21.2768 50.7315 21.4522 50.8399C21.601 50.9318 24.5151 52.0283 27.9275 53.2767C33.1412 55.184 34.1936 55.501 34.5159 55.2616C36.3138 53.9266 37.9179 52.4948 37.7661 52.3601C37.5845 52.1988 33.996 51.4492 33.4077 51.4495C33.1995 51.4497 33.2544 51.6558 33.5866 52.1219L34.0657 52.794L33.5355 53.1411C33.0402 53.4651 32.6643 53.3829 27.8491 51.9C25.0131 51.0264 22.608 50.3222 22.5044 50.3347C22.4007 50.3472 22.0608 50.4282 21.7486 50.5149ZM51.5357 57.3091C52.085 59.4055 52.5758 61.2486 52.6264 61.4049C52.6904 61.6029 53.3065 61.6894 54.6535 61.6894H56.5885L56.8446 60.7223C57.5236 58.1594 57.9706 56.6098 58.0556 56.5249C58.1071 56.4737 58.3705 57.1794 58.6409 58.0934C58.9112 59.0075 59.2561 60.1648 59.4072 60.6654L59.6819 61.5756L63.4167 61.7073L63.8667 60.1625C64.1142 59.3126 64.5844 57.6192 64.9114 56.3991C65.2385 55.1787 65.565 54.0269 65.6373 53.8392C65.7462 53.5554 65.4976 53.4976 64.1697 53.4976H62.5707L62.0948 55.5629C61.8328 56.6985 61.6186 57.7737 61.6186 57.9521C61.6186 58.1303 61.5318 58.2761 61.4256 58.2761C61.3197 58.2761 60.9474 57.201 60.5986 55.8869L59.9645 53.4976H56.4375L55.8034 55.8869C55.4546 57.201 55.0823 58.2761 54.9763 58.2761C54.8702 58.2761 54.7834 58.1303 54.7834 57.9521C54.7834 57.7737 54.5692 56.6985 54.3072 55.5629L53.8312 53.4976H50.5371L51.5357 57.3091ZM67.895 54.2372C66.84 56.7704 65.0362 61.3603 65.0362 61.5105C65.0362 61.6088 65.7897 61.6894 66.7104 61.6894H68.3848L69.1007 59.869H72.0499L72.7792 61.6894H74.4518C75.3718 61.6894 76.1763 61.6377 76.2394 61.5744C76.3027 61.5114 75.6324 59.6683 74.7498 57.4786L73.1453 53.4976H68.2028L67.895 54.2372ZM76.9979 61.5756H84.7445L84.8824 59.1863H80.5294V53.4976H76.8735L76.9979 61.5756ZM85.6559 61.5756H89.0735L89.3013 58.2249L91.5798 61.5756L93.5734 61.6413C94.67 61.6775 95.567 61.6184 95.567 61.5098C95.567 61.4013 94.8531 60.4046 93.981 59.2951C92.6647 57.621 92.4412 57.2174 92.6672 56.9236C92.8169 56.7288 93.3551 56.0575 93.8632 55.4318C95.6037 53.2874 95.657 53.4967 93.3733 53.5049L91.3519 53.512L89.3013 56.5536L89.1667 53.4976H85.5315L85.6559 61.5756ZM96.5923 61.5756H104.567L104.707 59.6414H99.896V59.0726C99.896 58.5057 99.9035 58.5037 102.06 58.5037H104.225V56.4558H102.045C99.9137 56.4558 99.8659 56.4441 99.937 55.9438C100.006 55.4582 100.124 55.4284 102.231 55.3667L104.453 55.3016V53.4976H96.4679L96.5923 61.5756ZM105.706 61.5756H109.076L109.124 58.845L109.889 58.8812C110.886 58.9285 111.057 59.1283 111.247 60.4636L111.406 61.5756L112.976 61.6436C115.172 61.7387 115.19 61.7258 114.819 60.3234C114.455 58.9447 113.915 58.0486 113.447 58.0486C112.913 58.0486 113.069 57.7448 113.855 57.2508C115.29 56.349 115.258 54.6299 113.792 53.8963C113.133 53.5663 112.363 53.4983 109.289 53.4981L105.582 53.4976L105.706 61.5756ZM71.1656 56.6264L71.637 57.821H70.6149C70.0528 57.821 69.5931 57.7824 69.5931 57.735C69.5931 57.6877 69.7318 57.3038 69.9011 56.8817C70.0706 56.4596 70.2782 55.9206 70.3622 55.6837C70.5564 55.1369 70.5962 55.1835 71.1656 56.6264ZM111.174 56.1144C111.174 56.7675 111.127 56.8 110.092 56.8665L109.01 56.9359V55.293L110.092 55.3624C111.127 55.4288 111.174 55.4614 111.174 56.1144ZM8.53154 56.035C8.09295 56.1565 7.32398 56.3636 6.82273 56.4951L5.91137 56.734L7.05057 57.1652C7.67714 57.4024 8.37069 57.6998 8.59169 57.8265C9.24856 58.2024 32.0293 67.0015 34.4651 67.8202L35.906 68.3044L37.8304 66.8809C40.0024 65.2742 40.0504 65.4425 37.1924 64.6504C35.6777 64.2306 35.6631 64.2308 35.52 64.6812C35.4273 64.9727 35.2498 65.0873 35.0247 65.0009C34.8317 64.9269 33.0723 64.3706 31.115 63.7644C29.1578 63.1582 23.423 61.3496 18.3713 59.7454C9.45225 56.9131 9.19023 56.8135 9.31896 56.301C9.39187 56.0107 9.424 55.7824 9.39028 55.7936C9.35656 55.805 8.97014 55.9135 8.53154 56.035ZM5 63.005L6.13921 63.5111C6.76577 63.7894 8.09864 64.4001 9.10115 64.8682C10.7482 65.6373 25.8521 72.0904 29.1245 73.4231L30.4649 73.969L32.4813 72.5507C33.5905 71.7709 34.4995 71.0721 34.5016 70.9979C34.5039 70.9239 34.0698 70.7401 33.5371 70.5892C33.0044 70.4386 32.3638 70.2249 32.1131 70.1146C31.5718 69.8763 29.2929 69.1611 24.4804 67.7194C22.5381 67.1375 20.1799 66.4219 19.2401 66.1293C16.7206 65.3447 12.5185 64.0693 10.6844 63.5325C9.4461 63.17 9.02824 62.9388 8.86168 62.5236L8.64546 61.9847L5 63.005Z" fill="#393737"/>
<path d="M53.6756 68.4604C53.2731 68.4604 52.9124 68.3603 52.5934 68.1599C52.2793 67.9596 52.0314 67.6713 51.8498 67.2951C51.6731 66.9189 51.5848 66.4767 51.5848 65.9685C51.5848 65.4652 51.6756 65.0255 51.8572 64.6492C52.0388 64.2681 52.2915 63.9774 52.6155 63.777C52.9394 63.5718 53.305 63.4692 53.7124 63.4692C53.9823 63.4692 54.2302 63.5254 54.4559 63.6378C54.6817 63.7502 54.8706 63.8894 55.0228 64.0556L54.721 64.4147C54.4412 64.102 54.1075 63.9456 53.7197 63.9456C53.4056 63.9456 53.1308 64.0287 52.8952 64.1948C52.6596 64.3561 52.4756 64.5881 52.3431 64.8911C52.2155 65.1891 52.1517 65.5434 52.1517 65.9538C52.1517 66.3643 52.213 66.7234 52.3357 67.0312C52.4633 67.3342 52.6425 67.5687 52.8731 67.7348C53.1087 67.901 53.3835 67.984 53.6977 67.984C53.9234 67.984 54.1271 67.9376 54.3087 67.8448C54.4952 67.7519 54.6743 67.6127 54.8461 67.427L55.1479 67.7642C54.9516 67.9938 54.7332 68.1673 54.4927 68.2845C54.2522 68.4018 53.9799 68.4604 53.6756 68.4604Z" fill="#393737"/>
<path d="M59.5429 68.4604C59.1405 68.4604 58.7846 68.3578 58.4754 68.1526C58.1662 67.9474 57.9233 67.6542 57.7466 67.2731C57.5748 66.892 57.4889 66.4498 57.4889 65.9465C57.4889 65.4432 57.5748 65.0059 57.7466 64.6346C57.9233 64.2583 58.1662 63.97 58.4754 63.7697C58.7846 63.5694 59.1405 63.4692 59.5429 63.4692C59.9404 63.4692 60.2938 63.5694 60.603 63.7697C60.9122 63.97 61.1527 64.2583 61.3245 64.6346C61.5011 65.0059 61.5895 65.4432 61.5895 65.9465C61.5895 66.4498 61.5011 66.892 61.3245 67.2731C61.1527 67.6542 60.9122 67.9474 60.603 68.1526C60.2938 68.3578 59.9404 68.4604 59.5429 68.4604ZM59.5429 67.984C59.8374 67.984 60.095 67.901 60.3159 67.7348C60.5416 67.5638 60.7159 67.3269 60.8386 67.0239C60.9613 66.7161 61.0226 66.3569 61.0226 65.9465C61.0226 65.541 60.9613 65.1891 60.8386 64.8911C60.7159 64.5881 60.5416 64.3561 60.3159 64.1948C60.095 64.0287 59.8374 63.9456 59.5429 63.9456C59.2435 63.9456 58.9809 64.0287 58.7552 64.1948C58.5343 64.3561 58.3625 64.5881 58.2399 64.8911C58.1172 65.1891 58.0558 65.541 58.0558 65.9465C58.0558 66.3569 58.1172 66.7161 58.2399 67.0239C58.3625 67.3317 58.5368 67.5687 58.7625 67.7348C58.9883 67.901 59.2484 67.984 59.5429 67.984Z" fill="#393737"/>
<path d="M64.5647 63.5574H65.1242L66.9499 66.6796L67.4799 67.6691H67.5094L67.4873 67.3466C67.4824 67.2684 67.4726 67.1047 67.4579 66.8555C67.4431 66.6015 67.4358 66.3718 67.4358 66.1666V63.5574H67.9511V68.3727H67.3916L65.5659 65.2504L65.0358 64.261H65.0064L65.0284 64.6128C65.0628 65.0379 65.08 65.4117 65.08 65.7342V68.3727H64.5647V63.5574Z" fill="#393737"/>
<path d="M72.5342 68.4604C72.2005 68.4604 71.8889 68.3969 71.5993 68.2699C71.3146 68.1428 71.0668 67.9669 70.8558 67.7422L71.187 67.3684C71.3637 67.5589 71.5698 67.7104 71.8054 67.8228C72.041 67.9303 72.2864 67.984 72.5416 67.984C72.8704 67.984 73.1281 67.9083 73.3146 67.7568C73.506 67.6054 73.6017 67.4026 73.6017 67.1485C73.6017 66.9873 73.5674 66.8529 73.4986 66.7454C73.4299 66.6379 73.3416 66.5524 73.2336 66.4889C73.1257 66.4254 72.9735 66.3496 72.7772 66.2617L72.0778 65.9538C71.7932 65.8317 71.5576 65.6753 71.3711 65.4848C71.1895 65.2942 71.0987 65.0401 71.0987 64.7225C71.0987 64.4831 71.1625 64.2681 71.2901 64.0775C71.4177 63.887 71.5944 63.738 71.8202 63.6305C72.0508 63.523 72.306 63.4692 72.5858 63.4692C72.8655 63.4692 73.1257 63.523 73.3661 63.6305C73.6115 63.738 73.8201 63.8821 73.9919 64.0629L73.6974 64.4074C73.3784 64.0995 73.0079 63.9456 72.5858 63.9456C72.3011 63.9456 72.0729 64.014 71.9011 64.1508C71.7294 64.2876 71.6435 64.4684 71.6435 64.6932C71.6435 64.8447 71.6827 64.9717 71.7613 65.0743C71.8398 65.1769 71.9306 65.2576 72.0336 65.3162C72.1367 65.3748 72.2766 65.4432 72.4533 65.5214L73.1526 65.8292C73.4717 65.9612 73.717 66.1249 73.8888 66.3203C74.0655 66.5157 74.1539 66.7796 74.1539 67.1119C74.1539 67.3659 74.0876 67.5956 73.9551 67.8008C73.8226 68.006 73.6336 68.1673 73.3882 68.2845C73.1428 68.4018 72.8582 68.4604 72.5342 68.4604Z" fill="#393737"/>
<path d="M78.7202 68.4606C78.2 68.4606 77.7853 68.3018 77.4761 67.9842C77.1669 67.6618 77.0123 67.1414 77.0123 66.4231V63.5574H77.557V66.4231C77.557 66.9801 77.6626 67.3808 77.8736 67.6251C78.0846 67.8645 78.3668 67.9842 78.7202 67.9842C79.0834 67.9842 79.373 67.8645 79.5889 67.6251C79.8049 67.3808 79.9128 66.9801 79.9128 66.4231V63.5574H80.4355V66.4231C80.4355 67.1414 80.2785 67.6618 79.9644 67.9842C79.6552 68.3018 79.2404 68.4606 78.7202 68.4606Z" fill="#393737"/>
<path d="M83.679 63.5574H84.2238V67.9109H86.3587V68.3727H83.679V63.5574Z" fill="#393737"/>
<path d="M89.269 64.0191H87.782V63.5574H91.2935V64.0191H89.8138V68.3727H89.269V64.0191Z" fill="#393737"/>
<path d="M95.999 66.8555H94.1953L93.7021 68.3727H93.1499L94.8064 63.5574H95.41L97.0591 68.3727H96.4849L95.999 66.8555ZM95.8591 66.4231L95.6088 65.6462C95.4125 65.0354 95.2456 64.4906 95.1082 64.0118H95.0787C94.9168 64.603 94.7524 65.1478 94.5855 65.6462L94.3352 66.4231H95.8591Z" fill="#393737"/>
<path d="M99.6804 63.5574H100.24L102.066 66.6796L102.596 67.6691H102.625L102.603 67.3466C102.598 67.2684 102.588 67.1047 102.574 66.8555C102.559 66.6015 102.551 66.3718 102.551 66.1666V63.5574H103.067V68.3727H102.507L100.682 65.2504L100.152 64.261H100.122L100.144 64.6128C100.179 65.0379 100.196 65.4117 100.196 65.7342V68.3727H99.6804V63.5574Z" fill="#393737"/>
<path d="M107.348 64.0191H105.861V63.5574H109.373V64.0191H107.893V68.3727H107.348V64.0191Z" fill="#393737"/>
<path d="M113.187 68.4604C112.854 68.4604 112.542 68.3969 112.252 68.2699C111.968 68.1428 111.72 67.9669 111.509 67.7422L111.84 67.3684C112.017 67.5589 112.223 67.7104 112.459 67.8228C112.694 67.9303 112.94 67.984 113.195 67.984C113.524 67.984 113.781 67.9083 113.968 67.7568C114.159 67.6054 114.255 67.4026 114.255 67.1485C114.255 66.9873 114.221 66.8529 114.152 66.7454C114.083 66.6379 113.995 66.5524 113.887 66.4889C113.779 66.4254 113.627 66.3496 113.43 66.2617L112.731 65.9538C112.446 65.8317 112.211 65.6753 112.024 65.4848C111.843 65.2942 111.752 65.0401 111.752 64.7225C111.752 64.4831 111.816 64.2681 111.943 64.0775C112.071 63.887 112.248 63.738 112.473 63.6305C112.704 63.523 112.959 63.4692 113.239 63.4692C113.519 63.4692 113.779 63.523 114.019 63.6305C114.265 63.738 114.473 63.8821 114.645 64.0629L114.351 64.4074C114.032 64.0995 113.661 63.9456 113.239 63.9456C112.954 63.9456 112.726 64.014 112.554 64.1508C112.383 64.2876 112.297 64.4684 112.297 64.6932C112.297 64.8447 112.336 64.9717 112.414 65.0743C112.493 65.1769 112.584 65.2576 112.687 65.3162C112.79 65.3748 112.93 65.4432 113.106 65.5214L113.806 65.8292C114.125 65.9612 114.37 66.1249 114.542 66.3203C114.719 66.5157 114.807 66.7796 114.807 67.1119C114.807 67.3659 114.741 67.5956 114.608 67.8008C114.476 68.006 114.287 68.1673 114.041 68.2845C113.796 68.4018 113.511 68.4604 113.187 68.4604Z" fill="#393737"/>
</svg>
