<svg width="41" height="42" viewBox="0 0 41 42" fill="none" xmlns="http://www.w3.org/2000/svg">
<path fill-rule="evenodd" clip-rule="evenodd" d="M27.1505 8.211C27.1505 5.2563 29.5457 2.86104 32.5005 2.86104C35.4552 2.86104 37.8505 5.2563 37.8505 8.211C37.8505 11.1658 35.4552 13.561 32.5005 13.561C29.5457 13.561 27.1505 11.1658 27.1505 8.211ZM32.5005 0.561035C28.2755 0.561035 24.8505 3.98606 24.8505 8.211C24.8505 12.436 28.2755 15.861 32.5005 15.861C36.7254 15.861 40.1505 12.436 40.1505 8.211C40.1505 3.98606 36.7254 0.561035 32.5005 0.561035ZM23.0005 20.061H23.7363L24.0446 20.7291L33.0446 40.2291L33.7978 41.861H32.0005H11.0005H10.2647L9.9563 41.193L0.956325 21.693L0.203125 20.061H2.00047H23.0005ZM27.4339 33.561L25.2647 28.861H21.0286L23.1978 33.561H27.4339ZM28.4954 35.861H24.2594L25.967 39.561H30.2031L28.4954 35.861ZM20.6647 33.561L18.4954 28.861H14.0286L16.1978 33.561H20.6647ZM17.2594 35.861H21.7262L23.4339 39.561H18.967L17.2594 35.861ZM13.6647 33.561L11.4954 28.861H6.79782L8.96705 33.561H13.6647ZM10.0286 35.861H14.7262L16.4339 39.561H11.7363L10.0286 35.861ZM22.2647 22.361L24.2031 26.561H19.967L18.0286 22.361H22.2647ZM15.4954 22.361L17.4339 26.561H12.967L11.0286 22.361H15.4954ZM8.49543 22.361L10.4339 26.561H5.73629L3.79783 22.361H8.49543ZM20.4255 8.561C21.2125 8.561 21.8505 7.923 21.8505 7.13599C21.8505 6.34899 21.2125 5.711 20.4255 5.711C19.6385 5.711 19.0005 6.34899 19.0005 7.13599C19.0005 7.923 19.6385 8.561 20.4255 8.561ZM39.2368 17.5917C39.8558 18.0777 39.9636 18.9735 39.4776 19.5925C38.9915 20.2115 38.0957 20.3193 37.4767 19.8333C36.8577 19.3472 36.7499 18.4514 37.236 17.8324C37.722 17.2134 38.6178 17.1056 39.2368 17.5917ZM13.4255 12.561C14.2125 12.561 14.8505 11.923 14.8505 11.136C14.8505 10.349 14.2125 9.711 13.4255 9.711C12.6385 9.711 12.0005 10.349 12.0005 11.136C12.0005 11.923 12.6385 12.561 13.4255 12.561ZM38.061 25.5682C38.68 26.0543 38.7878 26.9501 38.3018 27.569C37.8157 28.188 36.9199 28.2958 36.301 27.8098C35.682 27.3238 35.5742 26.428 36.0602 25.809C36.5462 25.19 37.442 25.0822 38.061 25.5682ZM6.42548 16.561C7.21249 16.561 7.85047 15.923 7.85047 15.136C7.85047 14.349 7.21249 13.711 6.42548 13.711C5.63847 13.711 5.00047 14.349 5.00047 15.136C5.00047 15.923 5.63847 16.561 6.42548 16.561ZM36.8813 33.5448C37.5003 34.0308 37.6081 34.9266 37.1221 35.5456C36.6361 36.1646 35.7403 36.2724 35.1213 35.7864C34.5023 35.3004 34.3945 34.4046 34.8805 33.7856C35.3665 33.1666 36.2623 33.0588 36.8813 33.5448Z" fill="#4E66FF"/>
</svg>
