<svg width="29" height="36" viewBox="0 0 29 36" fill="none" xmlns="http://www.w3.org/2000/svg">
<path fill-rule="evenodd" clip-rule="evenodd" d="M27.8808 0.591599C28.4998 1.0776 28.6076 1.9734 28.1216 2.5924C27.6356 3.2114 26.7398 3.3192 26.1208 2.8332C25.5018 2.3472 25.394 1.4514 25.88 0.832398C26.3661 0.213398 27.2619 0.105599 27.8808 0.591599ZM18.1216 8.5924C18.6076 7.9734 18.4998 7.0776 17.8808 6.5916C17.2619 6.1056 16.3661 6.2134 15.88 6.8324C15.394 7.4514 15.5018 8.3472 16.1208 8.8332C16.7398 9.3192 17.6356 9.2114 18.1216 8.5924ZM28.15 31.711H25.85V7.711H28.15V31.711ZM18.15 15.711V31.711H15.85V15.711H18.15ZM8.15 19.711V31.711H5.85V19.711H8.15ZM3.15 31.711V24.211H0.85V31.711H3.15ZM0 35.861H29V33.561H0V35.861ZM13.15 31.711V21.711H10.85V31.711H13.15ZM23.15 31.711V17.711H20.85V31.711H23.15ZM7.88085 9.5916C8.49984 10.0776 8.60764 10.9734 8.12161 11.5924C7.63559 12.2114 6.73979 12.3192 6.12079 11.8332C5.5018 11.3472 5.394 10.4514 5.88003 9.8324C6.36606 9.2134 7.26185 9.1056 7.88085 9.5916Z" fill="#4E66FF"/>
</svg>
